<?xml version="1.0" encoding="UTF-8"?>
<svg width="512" height="512" viewBox="0 0 512 512" fill="none" xmlns="http://www.w3.org/2000/svg">
    <path d="M380.672 148.672L409.088 98.816C411.648 94.208 410.112 88.576 405.504 86.016C400.896 83.456 395.264 84.992 392.704 89.6L363.776 140.288C339.456 129.536 312.32 123.904 283.648 123.904C254.976 123.904 227.84 129.536 203.52 140.288L174.592 89.6C172.032 84.992 166.4 83.456 161.792 86.016C157.184 88.576 155.648 94.208 158.208 98.816L186.624 148.672C132.608 177.088 95.744 230.912 92.16 293.376H475.136C471.552 230.912 434.688 177.088 380.672 148.672ZM283.648 256C283.648 261.632 279.04 266.24 273.408 266.24C267.776 266.24 263.168 261.632 263.168 256V235.52C263.168 229.888 267.776 225.28 273.408 225.28C279.04 225.28 283.648 229.888 283.648 235.52V256ZM304.128 256C304.128 261.632 299.52 266.24 293.888 266.24C288.256 266.24 283.648 261.632 283.648 256V235.52C283.648 229.888 288.256 225.28 293.888 225.28C299.52 225.28 304.128 229.888 304.128 235.52V256Z" fill="#3DDC84"/>
    <path d="M92.16 313.856C92.16 319.488 96.768 324.096 102.4 324.096H116.224V422.4C116.224 434.176 125.952 443.904 137.728 443.904C149.504 443.904 159.232 434.176 159.232 422.4V324.096H173.056C178.688 324.096 183.296 319.488 183.296 313.856V303.616H92.16V313.856Z" fill="#3DDC84"/>
    <path d="M384.256 324.096H398.08V422.4C398.08 434.176 407.808 443.904 419.584 443.904C431.36 443.904 441.088 434.176 441.088 422.4V324.096H454.912C460.544 324.096 465.152 319.488 465.152 313.856V303.616H374.016V313.856C374.016 319.488 378.624 324.096 384.256 324.096Z" fill="#3DDC84"/>
    <path d="M183.296 324.096H374.016V422.4C374.016 434.176 364.288 443.904 352.512 443.904H204.8C193.024 443.904 183.296 434.176 183.296 422.4V324.096Z" fill="#3DDC84"/>
</svg> 