<?xml version="1.0" encoding="UTF-8"?>
<svg width="512" height="512" viewBox="0 0 512 512" fill="none" xmlns="http://www.w3.org/2000/svg">
    <rect width="512" height="512" rx="50" fill="#00599C"/>
    <path d="M270.928 105.667C303.928 105.667 335.428 115.667 360.928 134.167C386.428 152.667 404.428 177.667 413.428 206.667L414.428 209.667L413.428 212.667C404.428 241.667 386.428 266.667 360.928 285.167C335.428 303.667 303.928 313.667 270.928 313.667C237.928 313.667 206.428 303.667 180.928 285.167C155.428 266.667 137.428 241.667 128.428 212.667L127.428 209.667L128.428 206.667C137.428 177.667 155.428 152.667 180.928 134.167C206.428 115.667 237.928 105.667 270.928 105.667Z" fill="white"/>
    <path d="M270.928 124.667C242.928 124.667 216.428 133.167 194.928 149.167C173.428 165.167 158.428 186.667 150.928 211.667C158.428 236.667 173.428 258.167 194.928 274.167C216.428 290.167 242.928 298.667 270.928 298.667C298.928 298.667 325.428 290.167 346.928 274.167C368.428 258.167 383.428 236.667 390.928 211.667C383.428 186.667 368.428 165.167 346.928 149.167C325.428 133.167 298.928 124.667 270.928 124.667Z" fill="#00599C"/>
    <path d="M270.928 162.667C282.928 162.667 293.928 165.667 303.928 171.667C313.928 177.667 321.428 185.667 327.428 195.667C333.428 205.667 336.428 216.667 336.428 228.667C336.428 240.667 333.428 251.667 327.428 261.667C321.428 271.667 313.928 279.667 303.928 285.667C293.928 291.667 282.928 294.667 270.928 294.667C258.928 294.667 247.928 291.667 237.928 285.667C227.928 279.667 220.428 271.667 214.428 261.667C208.428 251.667 205.428 240.667 205.428 228.667C205.428 216.667 208.428 205.667 214.428 195.667C220.428 185.667 227.928 177.667 237.928 171.667C247.928 165.667 258.928 162.667 270.928 162.667Z" fill="white"/>
    <path d="M373.928 202.667H392.928V234.667H424.928V253.667H392.928V285.667H373.928V253.667H341.928V234.667H373.928V202.667Z" fill="white"/>
    <path d="M470.928 202.667H489.928V234.667H521.928V253.667H489.928V285.667H470.928V253.667H438.928V234.667H470.928V202.667Z" fill="white"/>
</svg> 