<?xml version="1.0" encoding="UTF-8"?>
<svg width="512" height="512" viewBox="0 0 512 512" fill="none" xmlns="http://www.w3.org/2000/svg">
    <rect width="512" height="512" rx="50" fill="#953CAD"/>
    <path d="M362.928 202.667H381.928V234.667H413.928V253.667H381.928V285.667H362.928V253.667H330.928V234.667H362.928V202.667Z" fill="white"/>
    <path d="M459.928 202.667H478.928V234.667H510.928V253.667H478.928V285.667H459.928V253.667H427.928V234.667H459.928V202.667Z" fill="white"/>
    <path d="M259.928 105.667C292.928 105.667 324.428 115.667 349.928 134.167C375.428 152.667 393.428 177.667 402.428 206.667L403.428 209.667L402.428 212.667C393.428 241.667 375.428 266.667 349.928 285.167C324.428 303.667 292.928 313.667 259.928 313.667C226.928 313.667 195.428 303.667 169.928 285.167C144.428 266.667 126.428 241.667 117.428 212.667L116.428 209.667L117.428 206.667C126.428 177.667 144.428 152.667 169.928 134.167C195.428 115.667 226.928 105.667 259.928 105.667ZM259.928 124.667C231.928 124.667 205.428 133.167 183.928 149.167C162.428 165.167 147.428 186.667 139.928 211.667C147.428 236.667 162.428 258.167 183.928 274.167C205.428 290.167 231.928 298.667 259.928 298.667C287.928 298.667 314.428 290.167 335.928 274.167C357.428 258.167 372.428 236.667 379.928 211.667C372.428 186.667 357.428 165.167 335.928 149.167C314.428 133.167 287.928 124.667 259.928 124.667ZM259.928 162.667C271.928 162.667 282.928 165.667 292.928 171.667C302.928 177.667 310.428 185.667 316.428 195.667C322.428 205.667 325.428 216.667 325.428 228.667C325.428 240.667 322.428 251.667 316.428 261.667C310.428 271.667 302.928 279.667 292.928 285.667C282.928 291.667 271.928 294.667 259.928 294.667C247.928 294.667 236.928 291.667 226.928 285.667C216.928 279.667 209.428 271.667 203.428 261.667C197.428 251.667 194.428 240.667 194.428 228.667C194.428 216.667 197.428 205.667 203.428 195.667C209.428 185.667 216.928 177.667 226.928 171.667C236.928 165.667 247.928 162.667 259.928 162.667Z" fill="white"/>
</svg> 