<?xml version="1.0" encoding="UTF-8"?>
<svg width="512" height="512" viewBox="0 0 512 512" fill="none" xmlns="http://www.w3.org/2000/svg">
    <path d="M71.357 460.819L38.429 90.247h435.142l-32.947 370.461L255.5 511.753" fill="#264DE4"/>
    <path d="M255.5 480.531l149.147-41.336 35.101-393.279H255.5" fill="#2965F1"/>
    <path d="M255.5 207.967H404.973l-5.197 58.516-144.276.418v57.137h135.285l-12.775 142.534-122.51 36.119v62.459l224.744-62.249 1.651-18.538 25.759-288.549 2.677-29.45H255.5V207.967z" fill="#EBEBEB"/>
    <path d="M255.5 207.967H106.027l5.197 58.516 144.276.418v57.137H120.215l12.775 142.534 122.51 36.119v62.459L30.756 502.901l-1.651-18.538-25.759-288.549-2.677-29.45H255.5V207.967z" fill="#fff"/>
</svg>