<?xml version="1.0" encoding="UTF-8"?>
<svg width="512" height="512" viewBox="0 0 512 512" fill="none" xmlns="http://www.w3.org/2000/svg">
    <path fill-rule="evenodd" clip-rule="evenodd" d="M256 0C114.64 0 0 114.64 0 256C0 369.152 73.344 464.64 175.104 498.688C187.904 501.248 192.512 493.44 192.512 486.656C192.512 480.512 192.256 461.888 192.256 440.32C121.088 455.424 105.984 409.6 105.984 409.6C94.464 379.904 77.568 372.096 77.568 372.096C54.272 356.352 79.36 356.608 79.36 356.608C105.216 358.4 118.784 382.72 118.784 382.72C141.568 421.888 178.688 410.624 193.024 404.096C195.328 387.328 202.112 375.808 209.408 369.152C152.576 362.752 92.672 340.736 92.672 242.432C92.672 214.528 102.656 191.744 119.296 173.824C116.48 167.424 107.776 141.312 121.6 106.24C121.6 106.24 143.104 99.456 192.256 132.48C212.736 126.848 234.496 124.032 256 124.032C277.504 124.032 299.264 126.848 319.744 132.48C368.896 99.456 390.4 106.24 390.4 106.24C404.224 141.312 395.52 167.424 392.704 173.824C409.6 191.744 419.328 214.528 419.328 242.432C419.328 340.992 359.168 362.496 302.08 369.152C311.296 377.344 319.744 393.344 319.744 418.432C319.744 454.656 319.488 478.208 319.488 486.656C319.488 493.44 324.096 501.248 336.896 498.688C438.656 464.384 512 369.152 512 256C512 114.64 397.36 0 256 0Z" fill="black"/>
</svg> 