<?xml version="1.0" encoding="UTF-8"?>
<svg width="512" height="512" viewBox="0 0 512 512" fill="none" xmlns="http://www.w3.org/2000/svg">
    <path d="M253.906 46C253.906 46 207.473 92.4333 253.906 161.7C300.339 230.967 272.339 261.633 272.339 261.633C272.339 261.633 300.339 223.833 262.539 169.267C224.739 114.7 241.006 84.0333 253.906 46Z" fill="#E76F00"/>
    <path d="M272.339 277.9C272.339 277.9 309.673 246.767 281.673 200.333C253.673 153.9 272.339 123.233 272.339 100.7C272.339 78.1667 253.906 61.9 253.906 61.9C253.906 61.9 281.906 77.7 281.906 108.367C281.906 139.033 262.539 161.7 272.339 200.333C282.139 238.967 272.339 277.9 272.339 277.9Z" fill="#E76F00"/>
    <path d="M335.339 323.9H160.339C160.339 323.9 141.906 323.9 141.906 342.333C141.906 360.767 160.339 361.2 160.339 361.2H316.906C316.906 361.2 354.239 365.767 354.239 342.333C354.239 318.9 335.339 323.9 335.339 323.9Z" fill="#5382A1"/>
    <path d="M141.906 388.767C141.906 388.767 123.473 384.633 123.473 403.067C123.473 421.5 141.906 421.5 141.906 421.5H335.339C335.339 421.5 363.339 425.633 363.339 403.067C363.339 380.5 335.339 384.633 335.339 384.633H141.906V388.767Z" fill="#5382A1"/>
    <path d="M160.339 446C160.339 446 123.473 442.3 123.473 460.733C123.473 479.167 160.339 479.167 160.339 479.167H316.906C316.906 479.167 354.239 483.3 354.239 460.733C354.239 438.167 316.906 442.3 316.906 442.3H160.339V446Z" fill="#5382A1"/>
</svg> 