<?xml version="1.0" encoding="UTF-8"?>
<svg width="512" height="512" viewBox="0 0 512 512" fill="none" xmlns="http://www.w3.org/2000/svg">
    <rect width="512" height="512" rx="50" fill="#F7DF1E"/>
    <path d="M134.825 428.647L173.997 405.001C181.484 418.215 188.346 429.485 205.825 429.485C222.678 429.485 233.519 422.837 233.519 396.93V234.547H281.852V397.349C281.852 447.595 252.84 470.822 207.502 470.822C166.584 470.822 145.247 450.323 134.825 428.647" fill="black"/>
    <path d="M309.096 424.933L348.268 402.486C358.271 418.634 371.066 430.742 394.712 430.742C414.299 430.742 426.675 421.161 426.675 407.528C426.675 391.313 413.461 385.922 391.366 376.76L379.409 372.208C345.341 358.156 322.533 340.684 322.533 302.769C322.533 267.863 349.277 241.537 392.794 241.537C423.233 241.537 445.204 252.378 461 279.123L423.676 302.769C415.77 288.717 407.026 283.326 392.794 283.326C378.323 283.326 369.16 292.489 369.16 302.769C369.16 315.564 378.323 320.955 399.065 329.699L411.022 334.251C451.102 351.079 473.91 367.874 473.91 406.627C473.91 448.496 441.271 472.918 395.87 472.918C351.614 472.918 322.533 451.338 309.096 424.933" fill="black"/>
</svg>