<?xml version="1.0" encoding="UTF-8"?>
<svg width="512" height="512" viewBox="0 0 512 512" fill="none" xmlns="http://www.w3.org/2000/svg">
    <path d="M435.067 241.238C435.067 220.003 418.048 202.984 396.813 202.984C393.597 202.984 390.381 203.413 387.38 204.271L345.91 94.476C353.914 89.116 359.06 80.041 359.06 69.823C359.06 52.59 345.053 38.583 327.82 38.583C310.587 38.583 296.58 52.59 296.58 69.823C296.58 71.754 296.794 73.685 297.223 75.401L175.714 139.024C170.354 134.093 163.207 131.092 155.203 131.092C137.97 131.092 123.963 145.099 123.963 162.332C123.963 166.834 124.821 171.122 126.537 174.982L54.4467 275.694C52.0871 274.837 49.5132 274.408 46.7251 274.408C25.4899 274.408 8.47119 291.427 8.47119 312.662C8.47119 333.897 25.4899 350.916 46.7251 350.916C67.9603 350.916 84.979 333.897 84.979 312.662C84.979 308.16 84.1213 303.872 82.4054 299.798L154.496 199.3C156.855 200.157 159.429 200.586 162.217 200.586C165.433 200.586 168.435 199.943 171.436 198.871L254.252 326.251C252.536 330.11 251.464 334.398 251.464 338.9C251.464 356.133 265.471 370.14 282.704 370.14C299.937 370.14 313.944 356.133 313.944 338.9C313.944 336.326 313.515 333.753 312.872 331.393L397.456 282.927C403.603 286.572 410.749 288.717 418.324 288.717C439.559 288.717 456.578 271.698 456.578 250.463C456.578 246.818 456.149 243.173 454.862 239.957L435.067 241.238ZM46.7251 334.755C34.3505 334.755 24.3471 324.752 24.3471 312.377C24.3471 300.002 34.3505 289.999 46.7251 289.999C59.0997 289.999 69.1031 300.002 69.1031 312.377C69.1031 324.752 59.0997 334.755 46.7251 334.755ZM327.82 54.744C336.252 54.744 343.184 61.676 343.184 70.108C343.184 78.54 336.252 85.472 327.82 85.472C319.388 85.472 312.456 78.54 312.456 70.108C312.456 61.676 319.388 54.744 327.82 54.744ZM155.203 147.253C163.635 147.253 170.568 154.185 170.568 162.617C170.568 171.049 163.635 177.981 155.203 177.981C146.771 177.981 139.839 171.049 139.839 162.617C139.839 154.185 146.771 147.253 155.203 147.253ZM282.704 353.979C274.272 353.979 267.34 347.047 267.34 338.615C267.34 330.183 274.272 323.251 282.704 323.251C291.136 323.251 298.068 330.183 298.068 338.615C298.068 347.047 291.136 353.979 282.704 353.979ZM418.324 272.556C409.892 272.556 402.96 265.624 402.96 257.192C402.96 248.76 409.892 241.828 418.324 241.828C426.756 241.828 433.688 248.76 433.688 257.192C433.688 265.624 426.756 272.556 418.324 272.556Z" fill="#99425B"/>
    <path d="M449.646 214.18C449.646 214.18 449.646 214.18 449.646 214.18C449.646 214.18 449.646 214.18 449.646 214.18C449.646 214.18 449.646 214.18 449.646 214.18Z" fill="#99425B"/>
    <path d="M449.646 214.18C449.646 214.18 449.646 214.18 449.646 214.18C449.646 214.18 449.646 214.18 449.646 214.18C449.646 214.18 449.646 214.18 449.646 214.18Z" fill="#99425B"/>
    <path d="M449.646 214.18C449.646 214.18 449.646 214.18 449.646 214.18C449.646 214.18 449.646 214.18 449.646 214.18C449.646 214.18 449.646 214.18 449.646 214.18Z" fill="#99425B"/>
    <path d="M503.54 214.18C503.54 214.18 503.54 214.18 503.54 214.18C503.54 214.18 503.54 214.18 503.54 214.18C503.54 214.18 503.54 214.18 503.54 214.18Z" fill="#99425B"/>
    <path d="M503.54 214.18C503.54 214.18 503.54 214.18 503.54 214.18C503.54 214.18 503.54 214.18 503.54 214.18C503.54 214.18 503.54 214.18 503.54 214.18Z" fill="#99425B"/>
    <path d="M503.54 214.18C503.54 214.18 503.54 214.18 503.54 214.18C503.54 214.18 503.54 214.18 503.54 214.18C503.54 214.18 503.54 214.18 503.54 214.18Z" fill="#99425B"/>
</svg> 