<?xml version="1.0" encoding="UTF-8"?>
<svg width="512" height="512" viewBox="0 0 512 512" fill="none" xmlns="http://www.w3.org/2000/svg">
    <path d="M256 0C114.84 0 0 114.84 0 256C0 397.16 114.84 512 256 512C397.16 512 512 397.16 512 256C512 114.84 397.16 0 256 0ZM256 458.24C144.64 458.24 53.76 367.36 53.76 256C53.76 144.64 144.64 53.76 256 53.76C367.36 53.76 458.24 144.64 458.24 256C458.24 367.36 367.36 458.24 256 458.24Z" fill="#13AA52"/>
    <path d="M256 102.4C187.52 102.4 131.84 158.08 131.84 226.56C131.84 295.04 187.52 350.72 256 350.72C324.48 350.72 380.16 295.04 380.16 226.56C380.16 158.08 324.48 102.4 256 102.4ZM256 297.6C216.96 297.6 184.96 265.6 184.96 226.56C184.96 187.52 216.96 155.52 256 155.52C295.04 155.52 327.04 187.52 327.04 226.56C327.04 265.6 295.04 297.6 256 297.6Z" fill="#13AA52"/>
    <path d="M256 208.64C245.76 208.64 235.52 212.48 227.84 220.16C220.16 227.84 216.32 238.08 216.32 248.32C216.32 258.56 220.16 268.8 227.84 276.48C235.52 284.16 245.76 288 256 288C266.24 288 276.48 284.16 284.16 276.48C291.84 268.8 295.68 258.56 295.68 248.32C295.68 238.08 291.84 227.84 284.16 220.16C276.48 212.48 266.24 208.64 256 208.64Z" fill="#13AA52"/>
</svg> 