<?xml version="1.0" encoding="UTF-8"?>
<svg width="512" height="512" viewBox="0 0 512 512" fill="none" xmlns="http://www.w3.org/2000/svg">
    <path d="M255.159 511.728C247.03 511.728 239.316 509.572 232.426 505.26L183.766 475.772C173.481 470.221 178.617 468.48 181.603 467.566C194.88 463.668 197.452 462.754 209.076 456.374C210.404 455.66 212.146 455.874 213.474 456.588L250.437 478.758C252.179 479.672 254.335 479.672 255.663 478.758L451.652 363.12C453.394 362.206 454.308 360.464 454.308 358.522V127.46C454.308 125.518 453.394 123.776 451.652 122.862L255.663 7.43801C253.921 6.52401 252.179 6.52401 250.437 7.43801L54.6628 122.862C52.9208 123.776 52.0068 125.732 52.0068 127.46V358.522C52.0068 360.25 52.9208 362.206 54.6628 362.906L106.037 392.394C131.391 405.242 146.631 389.588 146.631 373.934V144.353C146.631 141.581 148.787 139.211 151.773 139.211H175.223C177.995 139.211 180.365 141.367 180.365 144.353V373.934C180.365 409.554 160.422 430.485 126.255 430.485C115.97 430.485 107.842 430.485 85.8858 419.786L36.7968 391.737C22.8138 383.608 14.4708 368.882 14.4708 353.128V127.46C14.4708 111.706 22.8138 96.98 36.7968 88.851L232.786 -26.787C246.341 -34.702 264.663 -34.702 278.004 -26.787L473.993 88.851C487.976 96.98 496.319 111.706 496.319 127.46V358.522C496.319 374.276 487.976 389.002 473.993 397.131L278.004 512.769C271.114 509.572 263.4 511.728 255.159 511.728ZM314.967 356.844C231.512 356.844 214.833 318.642 214.833 286.298C214.833 283.526 217.203 281.156 219.975 281.156H243.639C246.197 281.156 248.353 282.912 248.353 285.47C252.251 309.334 263.35 321.372 315.181 321.372C356.353 321.372 373.86 313.243 373.86 292.312C373.86 281.798 369.962 273.883 305.722 268.319C251.551 263.597 217.203 253.74 217.203 213.182C217.203 175.408 249.119 153.666 308.708 153.666C375.174 153.666 404.662 173.181 407.862 219.562C407.862 220.69 407.434 221.818 406.52 222.732C405.606 223.646 404.264 224.288 403.136 224.288H379.258C376.914 224.288 374.758 222.518 374.544 220.176C369.822 195.27 356.139 189.104 308.708 189.104C255.565 189.104 253.837 204.244 253.837 212.158C253.837 221.818 255.993 224.716 324.218 231.31C391.829 237.904 410.424 247.332 410.424 287.462C410.21 328.02 376.272 356.844 314.967 356.844Z" fill="#539E43"/>
</svg>
