<?xml version="1.0" encoding="UTF-8"?>
<svg width="512" height="512" viewBox="0 0 512 512" fill="none" xmlns="http://www.w3.org/2000/svg">
    <path d="M391.526 139.453C391.526 139.453 397.958 139.453 397.958 145.885V171.615C397.958 171.615 397.958 178.047 391.526 178.047H288.421C288.421 178.047 281.989 178.047 281.989 184.479V372.516C281.989 372.516 281.989 378.948 275.557 378.948H249.827C249.827 378.948 243.395 378.948 243.395 372.516V184.479C243.395 184.479 243.395 178.047 236.963 178.047H133.858C133.858 178.047 127.426 178.047 127.426 171.615V145.885C127.426 145.885 127.426 139.453 133.858 139.453H391.526Z" fill="#2D4552"/>
    <path d="M262.692 139.453C262.692 139.453 269.124 139.453 269.124 132.021V106.291C269.124 106.291 269.124 99.859 262.692 99.859H133.858C133.858 99.859 127.426 99.859 127.426 106.291V132.021C127.426 132.021 127.426 139.453 133.858 139.453H262.692Z" fill="#45BA4B"/>
    <path d="M391.526 99.859C391.526 99.859 397.958 99.859 397.958 106.291V132.021C397.958 132.021 397.958 139.453 391.526 139.453H288.421C288.421 139.453 281.989 139.453 281.989 132.021V106.291C281.989 106.291 281.989 99.859 288.421 99.859H391.526Z" fill="#E5507E"/>
</svg> 