<?xml version="1.0" encoding="UTF-8"?>
<svg width="512" height="512" viewBox="0 0 512 512" fill="none" xmlns="http://www.w3.org/2000/svg">
    <path fill-rule="evenodd" clip-rule="evenodd" d="M157.937 0.959977L389.354 46.952C398.861 48.38 406.281 55.799 407.709 65.307L453.701 296.724C455.129 306.231 450.818 315.738 442.74 320.049L239.468 445.574C230.39 449.885 219.454 448.457 211.376 441.808L69.959 316.283C61.881 309.634 58.999 298.698 62.881 289.191L156.08 65.307C159.962 55.799 157.937 0.959977 157.937 0.959977Z" fill="white"/>
    <path d="M157.937 0.959977L389.354 46.952C398.861 48.38 406.281 55.799 407.709 65.307L453.701 296.724C455.129 306.231 450.818 315.738 442.74 320.049L239.468 445.574C230.39 449.885 219.454 448.457 211.376 441.808L69.959 316.283C61.881 309.634 58.999 298.698 62.881 289.191L156.08 65.307C159.962 55.799 157.937 0.959977 157.937 0.959977" stroke="url(#paint0_linear_prisma)" stroke-width="20"/>
    <defs>
        <linearGradient id="paint0_linear_prisma" x1="156.509" y1="0.959977" x2="454.701" y2="296.724" gradientUnits="userSpaceOnUse">
            <stop stop-color="#5A67D8"/>
            <stop offset="1" stop-color="#2D3748"/>
        </linearGradient>
    </defs>
</svg> 