<?xml version="1.0" encoding="UTF-8"?>
<svg width="512" height="512" viewBox="0 0 512 512" fill="none" xmlns="http://www.w3.org/2000/svg">
    <path d="M255.245 36C125.814 36 134.112 80.6891 134.112 80.6891L134.182 127.318H257.459V143.803H84.2041C84.2041 143.803 35 135.541 35 266.118C35 396.695 78.9091 392.834 78.9091 392.834H116.959V343.891C116.959 343.891 115.342 299.982 159.252 299.982H281.595C281.595 299.982 322.789 300.719 322.789 260.393V89.3976C322.789 89.3976 331.782 36 255.245 36ZM187.304 98.0164C198.338 98.0164 207.279 106.957 207.279 117.991C207.279 129.025 198.338 137.966 187.304 137.966C176.27 137.966 167.329 129.025 167.329 117.991C167.329 106.957 176.27 98.0164 187.304 98.0164Z" fill="url(#paint0_linear_python)"/>
    <path d="M256.755 476C386.186 476 377.888 431.311 377.888 431.311L377.818 384.682H254.541V368.197H427.796C427.796 368.197 477 376.459 477 245.882C477 115.305 433.091 119.166 433.091 119.166H395.041V168.109C395.041 168.109 396.658 212.018 352.748 212.018H230.405C230.405 212.018 189.211 211.281 189.211 251.607V422.602C189.211 422.602 180.218 476 256.755 476ZM324.696 413.984C313.662 413.984 304.721 405.043 304.721 394.009C304.721 382.975 313.662 374.034 324.696 374.034C335.73 374.034 344.671 382.975 344.671 394.009C344.671 405.043 335.73 413.984 324.696 413.984Z" fill="url(#paint1_linear_python)"/>
    <defs>
        <linearGradient id="paint0_linear_python" x1="35" y1="36" x2="322.789" y2="392.834" gradientUnits="userSpaceOnUse">
            <stop stop-color="#387EB8"/>
            <stop offset="1" stop-color="#366994"/>
        </linearGradient>
        <linearGradient id="paint1_linear_python" x1="189.211" y1="119.166" x2="477" y2="476" gradientUnits="userSpaceOnUse">
            <stop stop-color="#FFE052"/>
            <stop offset="1" stop-color="#FFC331"/>
        </linearGradient>
    </defs>
</svg> 