<?xml version="1.0" encoding="UTF-8"?>
<svg width="512" height="512" viewBox="0 0 512 512" fill="none" xmlns="http://www.w3.org/2000/svg">
    <path d="M256 298.4c23.3 0 42.4-19.1 42.4-42.4s-19.1-42.4-42.4-42.4-42.4 19.1-42.4 42.4 19 42.4 42.4 42.4z" fill="#61DAFB"/>
    <path d="M256 354.2c71.9 0 139.8-10.3 190.8-27.7 54.8-18.7 88.6-43.5 88.6-70.5s-33.8-51.8-88.6-70.5c-51-17.4-118.9-27.7-190.8-27.7-71.9 0-139.8 10.3-190.8 27.7C10.4 204.2-23.4 229 -23.4 256s33.8 51.8 88.6 70.5c51 17.4 118.9 27.7 190.8 27.7zm0-168.4c67.5 0 131.8 9.4 179.9 25.8 46.7 15.9 71.9 35.3 71.9 44.4 0 9.1-25.2 28.5-71.9 44.4-48.1 16.4-112.4 25.8-179.9 25.8s-131.8-9.4-179.9-25.8c-46.7-15.9-71.9-35.3-71.9-44.4 0-9.1 25.2-28.5 71.9-44.4 48.1-16.4 112.4-25.8 179.9-25.8z" fill="#61DAFB"/>
    <path d="M149.8 439.8c35.9 62.3 81.6 101.5 121.7 101.5 40.1 0 85.8-39.2 121.7-101.5 38.5-66.7 59.7-154.7 59.7-183.8s-21.2-117.1-59.7-183.8C357.3 10.4 311.6-28.8 271.5-28.8s-85.8 39.2-121.7 101.5c-38.5 66.7-59.7 154.7-59.7 183.8s21.2 117.1 59.7 183.3zm121.7-440.9c32.8 0 73.3 35.8 106.4 93.3 35.3 61.3 55 142.2 55 163.8s-19.6 102.5-55 163.8c-33.1 57.4-73.6 93.3-106.4 93.3s-73.3-35.8-106.4-93.3c-35.3-61.3-55-142.2-55-163.8s19.6-102.5 55-163.8c33.1-57.5 73.6-93.3 106.4-93.3z" fill="#61DAFB"/>
</svg>
