<?xml version="1.0" encoding="UTF-8"?>
<svg width="512" height="512" viewBox="0 0 512 512" fill="none" xmlns="http://www.w3.org/2000/svg">
    <path d="M256 0C114.615 0 0 114.615 0 256C0 397.385 114.615 512 256 512C397.385 512 512 397.385 512 256C512 114.615 397.385 0 256 0Z" fill="#F89939"/>
    <path d="M418.909 191.673C418.909 191.673 391.273 173.818 363.636 173.818C336 173.818 308.364 191.673 308.364 219.309C308.364 246.945 336 264.8 363.636 264.8C391.273 264.8 418.909 246.945 418.909 219.309" fill="#3499CD"/>
    <path d="M93.0909 320.327C93.0909 320.327 120.727 338.182 148.364 338.182C176 338.182 203.636 320.327 203.636 292.691C203.636 265.055 176 247.2 148.364 247.2C120.727 247.2 93.0909 265.055 93.0909 292.691" fill="#3499CD"/>
    <path d="M256 173.818C283.636 173.818 308.364 149.091 308.364 121.455C308.364 93.8182 283.636 69.0909 256 69.0909C228.364 69.0909 203.636 93.8182 203.636 121.455C203.636 149.091 228.364 173.818 256 173.818Z" fill="#3499CD"/>
    <path d="M256 442.909C283.636 442.909 308.364 418.182 308.364 390.545C308.364 362.909 283.636 338.182 256 338.182C228.364 338.182 203.636 362.909 203.636 390.545C203.636 418.182 228.364 442.909 256 442.909Z" fill="#3499CD"/>
</svg> 