<?xml version="1.0" encoding="UTF-8"?>
<svg width="512" height="512" viewBox="0 0 512 512" fill="none" xmlns="http://www.w3.org/2000/svg">
    <path d="M256 51.2C187.733 51.2 143.36 84.907 122.88 152.32C143.36 101.547 171.52 84.48 207.36 101.12C227.627 110.507 242.133 125.227 255.147 138.453C276.48 160.213 295.253 179.2 341.12 179.2C409.387 179.2 453.76 145.493 474.24 78.08C453.76 128.853 425.6 145.92 389.76 129.28C369.493 119.893 354.987 105.173 341.973 91.947C320.64 70.187 301.867 51.2 256 51.2ZM122.88 179.2C54.613 179.2 10.24 212.907 -10.24 280.32C10.24 229.547 38.4 212.48 74.24 229.12C94.507 238.507 109.013 253.227 122.027 266.453C143.36 288.213 162.133 307.2 208 307.2C276.267 307.2 320.64 273.493 341.12 206.08C320.64 256.853 292.48 273.92 256.64 257.28C236.373 247.893 221.867 233.173 208.853 219.947C187.52 198.187 168.747 179.2 122.88 179.2Z" fill="#38BDF8"/>
</svg> 