<?xml version="1.0" encoding="UTF-8"?>
<svg width="512" height="512" viewBox="0 0 512 512" fill="none" xmlns="http://www.w3.org/2000/svg">
    <rect width="512" height="512" rx="50" fill="#3178C6"/>
    <path d="M317 354V380C326 385 336 389 348 391C359 394 371 395 384 395C396 395 407 394 418 391C428 388 437 384 445 378C453 373 459 366 463 358C467 350 469 340 469 329C469 321 468 314 466 308C464 302 461 296 457 291C452 286 447 281 441 277C434 273 427 269 419 265C413 262 407 260 403 257C398 254 394 252 390 249C387 247 384 244 382 241C380 239 379 236 379 232C379 229 380 227 382 224C383 222 386 220 389 218C391 216 395 215 399 214C403 213 407 213 412 213C415 213 419 213 423 214C426 214 430 215 434 216C438 218 441 219 445 221C448 223 452 225 455 227V203C447 200 438 197 429 195C420 193 410 192 399 192C387 192 375 194 365 197C355 200 346 204 339 209C331 215 326 222 321 230C317 238 315 248 315 258C315 270 318 280 324 289C331 298 340 306 353 312C359 315 365 318 371 321C377 323 382 326 387 329C391 331 395 334 398 337C401 340 402 343 402 347C402 349 401 352 400 354C398 357 396 359 393 360C390 362 387 363 383 364C379 365 374 366 369 366C361 366 354 364 346 361C338 358 330 354 322 348L317 354Z" fill="white"/>
    <path d="M233 251H298V231H148V251H212V395H233V251Z" fill="white"/>
</svg>