<?xml version="1.0" encoding="UTF-8"?>
<svg width="512" height="512" viewBox="0 0 512 512" fill="none" xmlns="http://www.w3.org/2000/svg">
    <path d="M483.027 161.173L428.8 25.6L297.813 63.1467L256 0L214.187 63.1467L83.2 25.6L28.9733 161.173L102.4 256L28.9733 350.827L83.2 486.4L214.187 448.853L256 512L297.813 448.853L428.8 486.4L483.027 350.827L409.6 256L483.027 161.173ZM297.813 392.533L256 448.853L214.187 392.533L172.373 407.893L119.467 448.853L73.3867 332.8L137.387 256L73.3867 179.2L119.467 63.1467L172.373 104.107L214.187 119.467L256 63.1467L297.813 119.467L339.627 104.107L392.533 63.1467L438.613 179.2L374.613 256L438.613 332.8L392.533 448.853L339.627 407.893L297.813 392.533Z" fill="black"/>
</svg> 