<?xml version="1.0" encoding="UTF-8"?>
<svg width="512" height="512" viewBox="0 0 512 512" fill="none" xmlns="http://www.w3.org/2000/svg">
    <path fill-rule="evenodd" clip-rule="evenodd" d="M256 0C114.615 0 0 114.615 0 256C0 397.385 114.615 512 256 512C397.385 512 512 397.385 512 256C512 114.615 397.385 0 256 0ZM381.046 339.692H130.954C124.062 339.692 118.154 333.785 118.154 326.892V185.108C118.154 178.215 124.062 172.308 130.954 172.308H381.046C387.938 172.308 393.846 178.215 393.846 185.108V326.892C393.846 333.785 387.938 339.692 381.046 339.692Z" fill="#4B6B9B"/>
    <path d="M256 256C256 238.892 269.892 225 287 225C304.108 225 318 238.892 318 256C318 273.108 304.108 287 287 287C269.892 287 256 273.108 256 256Z" fill="white"/>
    <path d="M194 256C194 238.892 207.892 225 225 225C242.108 225 256 238.892 256 256C256 273.108 242.108 287 225 287C207.892 287 194 273.108 194 256Z" fill="white"/>
</svg> 